<svg width="485" height="285" viewBox="0 0 485 285" fill="none" xmlns="http://www.w3.org/2000/svg">
<path d="M30.3185 163.769C148.711 278.421 337.105 278.421 455.654 163.628C463.151 157.29 474.231 158.292 480.569 165.647C486.328 172.424 486.187 182.361 480.131 188.841C348.06 317.03 137.912 317.03 5.8263 188.981C-1.091 182.205 -1.23185 171.125 5.5446 164.207C12.3054 157.29 23.4012 157.008 30.3185 163.769Z" fill="white" fill-opacity="0.15"/>
<path d="M119.902 161.328C90.8083 161.187 67.3333 137.712 67.3333 108.76C67.3333 88.446 78.9926 70.0103 97.4439 61.2306L65.737 29.9619C58.8197 23.0446 58.8197 11.9644 65.737 5.18797C72.6543 -1.72932 83.7345 -1.72932 90.511 5.18797L156.476 71.1527L157.196 71.8726L159.074 73.7506C159.653 74.4705 160.075 75.1904 160.513 75.9103C178.808 98.2429 175.49 131.217 153.174 149.512C143.799 157.29 131.999 161.328 119.902 161.328Z" fill="white" fill-opacity="0.15"/>
<path d="M366.31 161.328C395.404 161.187 418.879 137.712 418.879 108.76C418.879 88.446 407.219 70.0103 388.768 61.2306L420.475 29.9619C427.392 23.0446 427.392 11.9644 420.475 5.18797C413.558 -1.72932 402.477 -1.72932 395.701 5.18797L329.736 71.1527L329.016 71.8726L327.138 73.7506C326.559 74.4705 326.137 75.1904 325.698 75.9103C307.404 98.2429 310.721 131.217 333.038 149.512C342.413 157.29 354.213 161.328 366.31 161.328Z" fill="white" fill-opacity="0.15"/>
</svg>
